# xmcd
#
# Track frame offsets:
#	150
#	11716
#	29342
#	51768
#	68044
#	83510
#	102625
#	132646
#	149849
#	164364
#	186732
#
# Disc length: 2676 seconds
#
# Revision: 0
# Processed by: cddbd v1.4PL0 Copyright (c) Steve Scherf et al.
# Submitted via: EasyCDDAExtractor 4.6.0.1
#
DISCID=a60a720b
DTITLE=Pinkie and the Snakeshakers - Satisfied
DYEAR=2003
DGENRE=Blues
TTITLE0=A Little Whiskey
TTITLE1=Voodoo Love
TTITLE2=From Beginning to End
TTITLE3=Making Love
TTITLE4=Say What You Mean
TTITLE5=Ain't Been Satisfied (Acoustic)
TTITLE6=I Gotta' Move
TTITLE7=Running
TTITLE8=Move Your Body
TTITLE9=Blues Like The Devil
TTITLE10=Ain't Been Satisfied (Electric)
EXTD=
EXTT0=
EXTT1=
EXTT2=
EXTT3=
EXTT4=
EXTT5=
EXTT6=
EXTT7=
EXTT8=
EXTT9=
EXTT10=
PLAYORDER=
